<svg xmlns="http://www.w3.org/2000/svg" viewBox="0 0 1600 700" preserveAspectRatio="xMidYMid slice">
  <defs>
    <linearGradient id="sky" x1="0" y1="0" x2="0" y2="1">
      <stop offset="0" stop-color="#bcdcee"/>
      <stop offset="1" stop-color="#eef6fa"/>
    </linearGradient>
    <linearGradient id="ground" x1="0" y1="0" x2="0" y2="1">
      <stop offset="0" stop-color="#dcd6c8"/>
      <stop offset="1" stop-color="#c7c0af"/>
    </linearGradient>
  </defs>
  <rect x="0" y="0" width="1600" height="700" fill="url(#sky)"/>
  <rect x="0" y="470" width="1600" height="230" fill="url(#ground)"/>

  <!-- back building block -->
  <rect x="60" y="140" width="360" height="330" fill="#d9d2c5"/>
  <rect x="60" y="130" width="360" height="16" fill="#2f2f2f"/>

  <!-- main building -->
  <rect x="380" y="170" width="880" height="300" fill="#e9e4da"/>
  <rect x="380" y="158" width="880" height="16" fill="#2f2f2f"/>

  <!-- right recessed section -->
  <rect x="1180" y="200" width="280" height="270" fill="#d9d2c5"/>
  <rect x="1180" y="188" width="280" height="16" fill="#2f2f2f"/>

  
    <rect x="470" y="260" width="70" height="90" fill="#c9793c"/>
    <rect x="476" y="266" width="58" height="78" fill="#2b3a42"/>
    <line x1="505" y1="266" x2="505" y2="344" stroke="#c9793c" stroke-width="3"/>
    <line x1="476" y1="305" x2="534" y2="305" stroke="#c9793c" stroke-width="3"/>
    
    <rect x="562" y="260" width="70" height="90" fill="#c9793c"/>
    <rect x="568" y="266" width="58" height="78" fill="#2b3a42"/>
    <line x1="597" y1="266" x2="597" y2="344" stroke="#c9793c" stroke-width="3"/>
    <line x1="568" y1="305" x2="626" y2="305" stroke="#c9793c" stroke-width="3"/>
    
    <rect x="654" y="260" width="70" height="90" fill="#c9793c"/>
    <rect x="660" y="266" width="58" height="78" fill="#2b3a42"/>
    <line x1="689" y1="266" x2="689" y2="344" stroke="#c9793c" stroke-width="3"/>
    <line x1="660" y1="305" x2="718" y2="305" stroke="#c9793c" stroke-width="3"/>
    
    <rect x="746" y="260" width="70" height="90" fill="#c9793c"/>
    <rect x="752" y="266" width="58" height="78" fill="#2b3a42"/>
    <line x1="781" y1="266" x2="781" y2="344" stroke="#c9793c" stroke-width="3"/>
    <line x1="752" y1="305" x2="810" y2="305" stroke="#c9793c" stroke-width="3"/>
    
    <rect x="838" y="260" width="70" height="90" fill="#c9793c"/>
    <rect x="844" y="266" width="58" height="78" fill="#2b3a42"/>
    <line x1="873" y1="266" x2="873" y2="344" stroke="#c9793c" stroke-width="3"/>
    <line x1="844" y1="305" x2="902" y2="305" stroke="#c9793c" stroke-width="3"/>
    
    <rect x="930" y="260" width="70" height="90" fill="#c9793c"/>
    <rect x="936" y="266" width="58" height="78" fill="#2b3a42"/>
    <line x1="965" y1="266" x2="965" y2="344" stroke="#c9793c" stroke-width="3"/>
    <line x1="936" y1="305" x2="994" y2="305" stroke="#c9793c" stroke-width="3"/>
    

  <!-- ground floor wood panel accent -->
  <rect x="380" y="360" width="300" height="110" fill="#b06a30"/>
  <rect x="380" y="360" width="300" height="110" fill="url(#slats)"/>
  <defs>
    <pattern id="slats" width="20" height="110" patternUnits="userSpaceOnUse">
      <rect width="10" height="110" fill="#c9793c"/>
      <rect x="10" width="10" height="110" fill="#a05f2a"/>
    </pattern>
  </defs>

  <!-- low garden wall -->
  <rect x="0" y="470" width="1600" height="40" fill="#efece4"/>
  <rect x="0" y="470" width="1600" height="8" fill="#d8d3c6"/>

  <ellipse cx="140" cy="585" rx="60" ry="26" fill="#5a6b45"/>
<ellipse cx="230" cy="595" rx="80" ry="30" fill="#4b5a3a"/>
<ellipse cx="1000" cy="590" rx="70" ry="28" fill="#5a6b45"/>
<ellipse cx="1120" cy="598" rx="90" ry="30" fill="#4b5a3a"/>
<ellipse cx="1300" cy="585" rx="55" ry="24" fill="#5a6b45"/>

  <ellipse cx="210" cy="625" rx="42" ry="20" fill="#948e84"/>
<ellipse cx="210" cy="631" rx="34" ry="12" fill="#7d776d"/>
<ellipse cx="330" cy="635" rx="55" ry="22" fill="#948e84"/>
<ellipse cx="330" cy="641" rx="47" ry="14" fill="#7d776d"/>
<ellipse cx="980" cy="632" rx="48" ry="20" fill="#948e84"/>
<ellipse cx="980" cy="638" rx="40" ry="12" fill="#7d776d"/>


  <!-- wooden fence -->
  <g><rect x="40" y="442" width="16" height="118" fill="#c9793c"/>
<rect x="64" y="468" width="16" height="92" fill="#b06a30"/>
<rect x="88" y="468" width="16" height="92" fill="#c9793c"/>
<rect x="112" y="468" width="16" height="92" fill="#b06a30"/>
<rect x="136" y="468" width="16" height="92" fill="#c9793c"/>
<rect x="160" y="442" width="16" height="118" fill="#b06a30"/>
<rect x="184" y="468" width="16" height="92" fill="#c9793c"/>
<rect x="208" y="468" width="16" height="92" fill="#b06a30"/>
<rect x="232" y="468" width="16" height="92" fill="#c9793c"/>
<rect x="256" y="468" width="16" height="92" fill="#b06a30"/>
<rect x="280" y="442" width="16" height="118" fill="#c9793c"/>
<rect x="304" y="468" width="16" height="92" fill="#b06a30"/>
<rect x="328" y="468" width="16" height="92" fill="#c9793c"/>
<rect x="352" y="468" width="16" height="92" fill="#b06a30"/>
<rect x="376" y="468" width="16" height="92" fill="#c9793c"/>
<rect x="400" y="442" width="16" height="118" fill="#b06a30"/>
<rect x="424" y="468" width="16" height="92" fill="#c9793c"/>
<rect x="448" y="468" width="16" height="92" fill="#b06a30"/>
<rect x="472" y="468" width="16" height="92" fill="#c9793c"/>
<rect x="496" y="468" width="16" height="92" fill="#b06a30"/>
<rect x="520" y="442" width="16" height="118" fill="#c9793c"/>
<rect x="544" y="468" width="16" height="92" fill="#b06a30"/>
<rect x="568" y="468" width="16" height="92" fill="#c9793c"/>
<rect x="592" y="468" width="16" height="92" fill="#b06a30"/>
<rect x="616" y="468" width="16" height="92" fill="#c9793c"/>
<rect x="640" y="442" width="16" height="118" fill="#b06a30"/>
<rect x="664" y="468" width="16" height="92" fill="#c9793c"/>
<rect x="688" y="468" width="16" height="92" fill="#b06a30"/>
<rect x="712" y="468" width="16" height="92" fill="#c9793c"/>
<rect x="736" y="468" width="16" height="92" fill="#b06a30"/>
<rect x="760" y="442" width="16" height="118" fill="#c9793c"/>
<rect x="784" y="468" width="16" height="92" fill="#b06a30"/>
<rect x="808" y="468" width="16" height="92" fill="#c9793c"/>
<rect x="832" y="468" width="16" height="92" fill="#b06a30"/>
</g>
  <rect x="40" y="558" width="784" height="10" fill="#3a3a3a"/>
</svg>